# WaveFront *.obj file (generated by Autodesk ATF)

mtllib Alpha&Theta.mtl

g Body1

v -2.250000 0.000000 -0.300000
v -2.250000 0.000000 -0.000000
v -2.250000 5.000000 -0.000000
v -2.250000 5.000000 -0.300000
v -2.940629 0.000000 -2.016875
v -2.940629 5.000000 -2.016875
v -0.750000 0.000000 -0.300000
v -0.750000 5.000000 -0.300000
v -1.440629 0.000000 -2.016875
v -1.440629 5.000000 -2.016875
v 0.750000 0.000000 -0.300000
v 0.750000 5.000000 -0.300000
v 0.059371 0.000000 -2.016875
v 0.059371 5.000000 -2.016875
v 2.250000 0.000000 -0.300000
v 2.250000 5.000000 -0.300000
v 2.250000 0.000000 -0.000000
v 2.250000 5.000000 -0.000000
vt 0.000000 0.000000 0.000000
vt 0.300000 0.000000 0.000000
vt 0.000000 5.000000 0.000000
vt 0.300000 5.000000 0.000000
vt 0.000000 0.000000 0.000000
vt 1.850575 0.000000 0.000000
vt 0.000000 5.000000 0.000000
vt 1.850575 5.000000 0.000000
vt -0.000000 0.000000 0.000000
vt 2.783256 0.000000 0.000000
vt -0.000000 5.000000 0.000000
vt 2.783256 5.000000 0.000000
vt 0.000000 0.000000 0.000000
vt 1.850575 0.000000 0.000000
vt 0.000000 5.000000 0.000000
vt 1.850575 5.000000 0.000000
vt 0.000000 0.000000 0.000000
vt 2.783256 0.000000 0.000000
vt 0.000000 5.000000 0.000000
vt 2.783256 5.000000 0.000000
vt 0.000000 0.000000 0.000000
vt 1.850575 0.000000 0.000000
vt 0.000000 5.000000 0.000000
vt 1.850575 5.000000 0.000000
vt -0.000000 0.000000 0.000000
vt 2.783256 0.000000 0.000000
vt -0.000000 5.000000 0.000000
vt 2.783256 5.000000 0.000000
vt -0.000000 0.000000 0.000000
vt 0.300000 0.000000 0.000000
vt -0.000000 5.000000 0.000000
vt 0.300000 5.000000 0.000000
vt 0.000000 0.000000 0.000000
vt 4.500000 0.000000 0.000000
vt 0.000000 5.000000 0.000000
vt 4.500000 5.000000 0.000000
vt 1.008437 2.595315 0.000000
vt 0.708437 1.095315 0.000000
vt 1.008437 -1.904685 0.000000
vt 0.708437 -0.404685 0.000000
vt 0.708437 -1.904685 0.000000
vt -1.008437 -2.595315 0.000000
vt 0.708437 2.595315 0.000000
vt -1.008437 0.404685 0.000000
vt -1.008437 -1.095315 0.000000
vt -2.595315 -0.708437 0.000000
vt -2.595315 -1.008437 0.000000
vt -1.095315 -0.708437 0.000000
vt 1.904685 -1.008437 0.000000
vt 0.404685 -0.708437 0.000000
vt 1.904685 -0.708437 0.000000
vt 2.595315 1.008437 0.000000
vt 1.095315 1.008437 0.000000
vt -0.404685 1.008437 0.000000
vn -1.000000 0.000000 -0.000000
vn -1.000000 0.000000 -0.000000
vn -1.000000 0.000000 -0.000000
vn -1.000000 0.000000 -0.000000
vn -0.927752 0.000000 0.373197
vn -0.927752 0.000000 0.373197
vn -0.927752 0.000000 0.373197
vn -0.927752 0.000000 0.373197
vn 0.616858 0.000000 -0.787074
vn 0.616858 0.000000 -0.787074
vn 0.616858 0.000000 -0.787074
vn 0.616858 0.000000 -0.787074
vn -0.927752 0.000000 0.373197
vn -0.927752 0.000000 0.373197
vn -0.927752 0.000000 0.373197
vn -0.927752 0.000000 0.373197
vn 0.616858 0.000000 -0.787074
vn 0.616858 0.000000 -0.787074
vn 0.616858 0.000000 -0.787074
vn 0.616858 0.000000 -0.787074
vn -0.927752 0.000000 0.373197
vn -0.927752 0.000000 0.373197
vn -0.927752 0.000000 0.373197
vn -0.927752 0.000000 0.373197
vn 0.616858 0.000000 -0.787074
vn 0.616858 0.000000 -0.787074
vn 0.616858 0.000000 -0.787074
vn 0.616858 0.000000 -0.787074
vn 1.000000 0.000000 0.000000
vn 1.000000 0.000000 0.000000
vn 1.000000 0.000000 0.000000
vn 1.000000 0.000000 0.000000
vn 0.000000 -0.000000 1.000000
vn 0.000000 -0.000000 1.000000
vn 0.000000 -0.000000 1.000000
vn 0.000000 -0.000000 1.000000
vn 0.000000 1.000000 0.000000
vn 0.000000 1.000000 0.000000
vn 0.000000 1.000000 0.000000
vn 0.000000 1.000000 0.000000
vn 0.000000 1.000000 0.000000
vn 0.000000 1.000000 0.000000
vn 0.000000 1.000000 0.000000
vn 0.000000 1.000000 0.000000
vn 0.000000 1.000000 0.000000
vn -0.000000 -1.000000 -0.000000
vn -0.000000 -1.000000 -0.000000
vn -0.000000 -1.000000 -0.000000
vn -0.000000 -1.000000 -0.000000
vn -0.000000 -1.000000 -0.000000
vn -0.000000 -1.000000 -0.000000
vn -0.000000 -1.000000 -0.000000
vn -0.000000 -1.000000 -0.000000
vn -0.000000 -1.000000 -0.000000
usemtl Powder_Coat_(Yellow)
f 1/1/1 2/2/2 4/3/3
f 4/3/3 2/2/2 3/4/4
f 5/5/5 1/6/6 6/7/7
f 6/7/7 1/6/6 4/8/8
f 7/9/9 5/10/10 8/11/11
f 8/11/11 5/10/10 6/12/12
f 9/13/13 7/14/14 10/15/15
f 10/15/15 7/14/14 8/16/16
f 11/17/17 9/18/18 12/19/19
f 12/19/19 9/18/18 10/20/20
f 13/21/21 11/22/22 14/23/23
f 14/23/23 11/22/22 12/24/24
f 15/25/25 13/26/26 16/27/27
f 16/27/27 13/26/26 14/28/28
f 17/29/29 15/30/30 18/31/31
f 18/31/31 15/30/30 16/32/32
f 2/33/33 17/34/34 3/35/35
f 3/35/35 17/34/34 18/36/36
f 18/37/37 12/38/38 3/39/39
f 3/39/39 12/38/38 8/40/40
f 3/39/39 8/40/40 4/41/41
f 4/41/41 8/40/40 6/42/42
f 18/37/37 16/43/43 12/38/38
f 12/38/38 16/43/43 14/44/44
f 12/38/38 10/45/45 8/40/40
f 15/46/46 17/47/47 11/48/48
f 11/48/48 17/47/47 2/49/49
f 11/48/48 2/49/49 7/50/50
f 7/50/50 2/49/49 1/51/51
f 7/50/50 1/51/51 5/52/52
f 7/50/50 9/53/53 11/48/48
f 11/48/48 13/54/54 15/46/46
g Body2

v -6.440629 -3.500000 -2.216875
v 3.559371 -3.500000 -2.216875
v 3.559371 -3.500000 -2.016875
v -6.440629 -3.500000 -2.016875
v -6.440629 8.500000 -2.216875
v -6.440629 2.500000 -2.216875
v -6.440629 2.500000 -2.016875
v -6.440629 8.500000 -2.016875
v 3.559371 8.500000 -2.216875
v 3.559371 8.500000 -2.016875
v 3.559371 2.500000 -2.216875
v 3.559371 2.500000 -2.016875
vt 0.000000 0.000000 0.000000
vt 10.000000 0.000000 0.000000
vt 0.000000 0.200000 0.000000
vt 10.000000 0.200000 0.000000
vt 0.000000 0.000000 0.000000
vt 6.000000 0.000000 0.000000
vt 0.000000 0.200000 0.000000
vt 6.000000 0.200000 0.000000
vt 12.000000 0.000000 0.000000
vt 12.000000 0.200000 0.000000
vt 0.000000 0.000000 0.000000
vt 10.000000 0.000000 0.000000
vt 0.000000 0.200000 0.000000
vt 10.000000 0.200000 0.000000
vt 0.000000 0.000000 0.000000
vt 6.000000 0.000000 0.000000
vt 0.000000 0.200000 0.000000
vt 6.000000 0.200000 0.000000
vt 12.000000 0.000000 0.000000
vt 12.000000 0.200000 0.000000
vt -5.000000 -6.000000 0.000000
vt 5.000000 -6.000000 0.000000
vt -5.000000 0.000000 0.000000
vt 5.000000 0.000000 0.000000
vt -5.000000 6.000000 0.000000
vt 5.000000 6.000000 0.000000
vt 5.000000 6.000000 0.000000
vt -5.000000 6.000000 0.000000
vt 5.000000 0.000000 0.000000
vt -5.000000 0.000000 0.000000
vt 5.000000 -6.000000 0.000000
vt -5.000000 -6.000000 0.000000
vn 0.000000 -1.000000 0.000000
vn 0.000000 -1.000000 0.000000
vn 0.000000 -1.000000 0.000000
vn 0.000000 -1.000000 0.000000
vn -1.000000 0.000000 0.000000
vn -1.000000 0.000000 0.000000
vn -1.000000 0.000000 0.000000
vn -1.000000 0.000000 0.000000
vn -1.000000 0.000000 0.000000
vn -1.000000 0.000000 0.000000
vn 0.000000 1.000000 0.000000
vn 0.000000 1.000000 0.000000
vn 0.000000 1.000000 0.000000
vn 0.000000 1.000000 0.000000
vn 1.000000 0.000000 0.000000
vn 1.000000 0.000000 0.000000
vn 1.000000 0.000000 0.000000
vn 1.000000 0.000000 0.000000
vn 1.000000 0.000000 0.000000
vn 1.000000 0.000000 0.000000
vn 0.000000 0.000000 1.000000
vn 0.000000 0.000000 1.000000
vn 0.000000 0.000000 1.000000
vn 0.000000 0.000000 1.000000
vn 0.000000 0.000000 1.000000
vn 0.000000 0.000000 1.000000
vn -0.000000 -0.000000 -1.000000
vn -0.000000 -0.000000 -1.000000
vn -0.000000 -0.000000 -1.000000
vn -0.000000 -0.000000 -1.000000
vn -0.000000 -0.000000 -1.000000
vn -0.000000 -0.000000 -1.000000
usemtl Steel_-_Satin
f 19/55/55 20/56/56 22/57/57
f 22/57/57 20/56/56 21/58/58
f 23/59/59 24/60/60 26/61/61
f 26/61/61 24/60/60 25/62/62
f 25/62/62 24/60/60 19/63/63
f 25/62/62 19/63/63 22/64/64
f 27/65/65 23/66/66 28/67/67
f 28/67/67 23/66/66 26/68/68
f 20/69/69 29/70/70 21/71/71
f 21/71/71 29/70/70 30/72/72
f 30/72/72 29/70/70 27/73/73
f 30/72/72 27/73/73 28/74/74
f 22/75/75 21/76/76 25/77/77
f 25/77/77 21/76/76 30/78/78
f 25/77/77 30/78/78 26/79/79
f 26/79/79 30/78/78 28/80/80
f 23/81/81 27/82/82 24/83/83
f 24/83/83 27/82/82 29/84/84
f 24/83/83 29/84/84 19/85/85
f 19/85/85 29/84/84 20/86/86
# 30 vertices
# 86 texture params
# 86 normals
# 52 facets

# 2 groups
